<?xml version="1.0" encoding="UTF-8" standalone="no"?>
<!DOCTYPE svg PUBLIC "-//W3C//DTD SVG 1.1//EN"
 "http://www.w3.org/Graphics/SVG/1.1/DTD/svg11.dtd">
<!-- Generated by graphviz version 13.0.0 (20250608.1624)
 -->
<!-- Pages: 1 -->
<svg width="9314pt" height="836pt"
 viewBox="0.00 0.00 9314.00 836.00" xmlns="http://www.w3.org/2000/svg" xmlns:xlink="http://www.w3.org/1999/xlink">
<g id="graph0" class="graph" transform="scale(1 1) rotate(0) translate(4 832)">
<polygon fill="white" stroke="none" points="-4,4 -4,-832 9310.25,-832 9310.25,4 -4,4"/>
<!-- Fundamentals -->
<g id="node1" class="node">
<title>Fundamentals</title>
<polygon fill="#fff8dc" stroke="#ffb300" stroke-width="3" points="1752.12,-828 1571.12,-828 1571.12,-756 1752.12,-756 1752.12,-828"/>
<text xml:space="preserve" text-anchor="middle" x="1661.62" y="-782.7" font-family="Helvetica,sans-Serif" font-weight="bold" font-size="24.00" fill="#000000">Fundamentals</text>
</g>
<!-- HTML &amp; CSS -->
<g id="node2" class="node">
<title>HTML &amp; CSS</title>
<polygon fill="#fff8dc" stroke="#ffb300" stroke-width="3" points="688.75,-576 526.5,-576 526.5,-504 688.75,-504 688.75,-576"/>
<text xml:space="preserve" text-anchor="middle" x="607.62" y="-530.7" font-family="Helvetica,sans-Serif" font-weight="bold" font-size="24.00" fill="#000000">HTML &amp; CSS</text>
</g>
<!-- Fundamentals&#45;&gt;HTML &amp; CSS -->
<g id="edge1" class="edge">
<title>Fundamentals&#45;&gt;HTML &amp; CSS</title>
<path fill="none" stroke="#999999" stroke-width="2" d="M1570.85,-769.47C1373.9,-722.75 908.79,-612.43 705.54,-564.23"/>
<polygon fill="#999999" stroke="#999999" stroke-width="2" points="706.73,-559.47 691.98,-561.01 704.47,-569.01 706.73,-559.47"/>
</g>
<!-- JavaScript Basics -->
<g id="node4" class="node">
<title>JavaScript Basics</title>
<polygon fill="#fff8dc" stroke="#ffb300" stroke-width="3" points="1212.12,-576 989.12,-576 989.12,-504 1212.12,-504 1212.12,-576"/>
<text xml:space="preserve" text-anchor="middle" x="1100.62" y="-530.7" font-family="Helvetica,sans-Serif" font-weight="bold" font-size="24.00" fill="#000000">JavaScript Basics</text>
</g>
<!-- Fundamentals&#45;&gt;JavaScript Basics -->
<g id="edge3" class="edge">
<title>Fundamentals&#45;&gt;JavaScript Basics</title>
<path fill="none" stroke="#999999" stroke-width="2" d="M1582.14,-755.58C1480.44,-710.26 1304.47,-631.84 1195.76,-583.39"/>
<polygon fill="#999999" stroke="#999999" stroke-width="2" points="1197.77,-578.93 1182.99,-577.7 1193.78,-587.88 1197.77,-578.93"/>
</g>
<!-- Web Browsers &amp; Developer Tools -->
<g id="node6" class="node">
<title>Web Browsers &amp; Developer Tools</title>
<polygon fill="#fff8dc" stroke="#ffb300" stroke-width="3" points="1862,-576 1461.25,-576 1461.25,-504 1862,-504 1862,-576"/>
<text xml:space="preserve" text-anchor="middle" x="1661.62" y="-530.7" font-family="Helvetica,sans-Serif" font-weight="bold" font-size="24.00" fill="#000000">Web Browsers &amp; Developer Tools</text>
</g>
<!-- Fundamentals&#45;&gt;Web Browsers &amp; Developer Tools -->
<g id="edge5" class="edge">
<title>Fundamentals&#45;&gt;Web Browsers &amp; Developer Tools</title>
<path fill="none" stroke="#999999" stroke-width="2" d="M1661.62,-755.71C1661.62,-713.28 1661.62,-641.69 1661.62,-592.94"/>
<polygon fill="#999999" stroke="#999999" stroke-width="2" points="1666.53,-593.14 1661.63,-579.14 1656.73,-593.14 1666.53,-593.14"/>
</g>
<!-- Version Control (Git) -->
<g id="node8" class="node">
<title>Version Control (Git)</title>
<polygon fill="#fff8dc" stroke="#ffb300" stroke-width="3" points="2341.5,-576 2087.75,-576 2087.75,-504 2341.5,-504 2341.5,-576"/>
<text xml:space="preserve" text-anchor="middle" x="2214.62" y="-530.7" font-family="Helvetica,sans-Serif" font-weight="bold" font-size="24.00" fill="#000000">Version Control (Git)</text>
</g>
<!-- Fundamentals&#45;&gt;Version Control (Git) -->
<g id="edge7" class="edge">
<title>Fundamentals&#45;&gt;Version Control (Git)</title>
<path fill="none" stroke="#999999" stroke-width="2" d="M1739.98,-755.58C1840.23,-710.26 2013.69,-631.84 2120.85,-583.39"/>
<polygon fill="#999999" stroke="#999999" stroke-width="2" points="2122.66,-587.95 2133.4,-577.72 2118.63,-579.02 2122.66,-587.95"/>
</g>
<!-- Responsive Design Principles -->
<g id="node10" class="node">
<title>Responsive Design Principles</title>
<polygon fill="#fff8dc" stroke="#ffb300" stroke-width="3" points="3001.88,-576 2639.38,-576 2639.38,-504 3001.88,-504 3001.88,-576"/>
<text xml:space="preserve" text-anchor="middle" x="2820.62" y="-530.7" font-family="Helvetica,sans-Serif" font-weight="bold" font-size="24.00" fill="#000000">Responsive Design Principles</text>
</g>
<!-- Fundamentals&#45;&gt;Responsive Design Principles -->
<g id="edge9" class="edge">
<title>Fundamentals&#45;&gt;Responsive Design Principles</title>
<path fill="none" stroke="#999999" stroke-width="2" d="M1752.57,-771.38C1943.33,-730.24 2388.35,-634.24 2639.61,-580.05"/>
<polygon fill="#999999" stroke="#999999" stroke-width="2" points="2640.63,-584.84 2653.28,-577.1 2638.56,-575.26 2640.63,-584.84"/>
</g>
<!-- Euron Platform HTML &amp; CSS Course (2 weeks) -->
<g id="node3" class="node">
<title>Euron Platform HTML &amp; CSS Course (2 weeks)</title>
<polygon fill="#fff8dc" stroke="#ffb300" stroke-width="3" points="549.25,-324 0,-324 0,-252 549.25,-252 549.25,-324"/>
<text xml:space="preserve" text-anchor="middle" x="274.62" y="-278.7" font-family="Helvetica,sans-Serif" font-weight="bold" font-size="24.00" fill="#000000">Euron Platform HTML &amp; CSS Course (2 weeks)</text>
</g>
<!-- HTML &amp; CSS&#45;&gt;Euron Platform HTML &amp; CSS Course (2 weeks) -->
<g id="edge2" class="edge">
<title>HTML &amp; CSS&#45;&gt;Euron Platform HTML &amp; CSS Course (2 weeks)</title>
<path fill="none" stroke="#999999" stroke-width="2" d="M560.62,-503.71C501.45,-459.29 399.74,-382.93 334.9,-334.26"/>
<polygon fill="#999999" stroke="#999999" stroke-width="2" points="338.22,-330.62 324.08,-326.13 332.33,-338.45 338.22,-330.62"/>
</g>
<!-- Euron Platform JavaScript Fundamentals (3 weeks) -->
<g id="node5" class="node">
<title>Euron Platform JavaScript Fundamentals (3 weeks)</title>
<polygon fill="#fff8dc" stroke="#ffb300" stroke-width="3" points="1264.12,-324 657.12,-324 657.12,-252 1264.12,-252 1264.12,-324"/>
<text xml:space="preserve" text-anchor="middle" x="960.62" y="-278.7" font-family="Helvetica,sans-Serif" font-weight="bold" font-size="24.00" fill="#000000">Euron Platform JavaScript Fundamentals (3 weeks)</text>
</g>
<!-- JavaScript Basics&#45;&gt;Euron Platform JavaScript Fundamentals (3 weeks) -->
<g id="edge4" class="edge">
<title>JavaScript Basics&#45;&gt;Euron Platform JavaScript Fundamentals (3 weeks)</title>
<path fill="none" stroke="#999999" stroke-width="2" d="M1080.86,-503.71C1056.73,-460.62 1015.77,-387.48 988.46,-338.71"/>
<polygon fill="#999999" stroke="#999999" stroke-width="2" points="992.88,-336.57 981.77,-326.75 984.33,-341.36 992.88,-336.57"/>
</g>
<!-- Euron Platform Web Development Tools (1 week) -->
<g id="node7" class="node">
<title>Euron Platform Web Development Tools (1 week)</title>
<polygon fill="#fff8dc" stroke="#ffb300" stroke-width="3" points="1951.25,-324 1372,-324 1372,-252 1951.25,-252 1951.25,-324"/>
<text xml:space="preserve" text-anchor="middle" x="1661.62" y="-278.7" font-family="Helvetica,sans-Serif" font-weight="bold" font-size="24.00" fill="#000000">Euron Platform Web Development Tools (1 week)</text>
</g>
<!-- Web Browsers &amp; Developer Tools&#45;&gt;Euron Platform Web Development Tools (1 week) -->
<g id="edge6" class="edge">
<title>Web Browsers &amp; Developer Tools&#45;&gt;Euron Platform Web Development Tools (1 week)</title>
<path fill="none" stroke="#999999" stroke-width="2" d="M1661.62,-503.71C1661.62,-461.28 1661.62,-389.69 1661.62,-340.94"/>
<polygon fill="#999999" stroke="#999999" stroke-width="2" points="1666.53,-341.14 1661.63,-327.14 1656.73,-341.14 1666.53,-341.14"/>
</g>
<!-- Euron Platform Git &amp; Version Control (1 week) -->
<g id="node9" class="node">
<title>Euron Platform Git &amp; Version Control (1 week)</title>
<polygon fill="#fff8dc" stroke="#ffb300" stroke-width="3" points="2604,-324 2059.25,-324 2059.25,-252 2604,-252 2604,-324"/>
<text xml:space="preserve" text-anchor="middle" x="2331.62" y="-278.7" font-family="Helvetica,sans-Serif" font-weight="bold" font-size="24.00" fill="#000000">Euron Platform Git &amp; Version Control (1 week)</text>
</g>
<!-- Version Control (Git)&#45;&gt;Euron Platform Git &amp; Version Control (1 week) -->
<g id="edge8" class="edge">
<title>Version Control (Git)&#45;&gt;Euron Platform Git &amp; Version Control (1 week)</title>
<path fill="none" stroke="#999999" stroke-width="2" d="M2231.14,-503.71C2251.22,-460.81 2285.24,-388.11 2308.06,-339.34"/>
<polygon fill="#999999" stroke="#999999" stroke-width="2" points="2312.41,-341.61 2313.91,-326.85 2303.54,-337.45 2312.41,-341.61"/>
</g>
<!-- Euron Platform Responsive Web Design (2 weeks) -->
<g id="node11" class="node">
<title>Euron Platform Responsive Web Design (2 weeks)</title>
<polygon fill="#fff8dc" stroke="#ffb300" stroke-width="3" points="3307.12,-324 2712.12,-324 2712.12,-252 3307.12,-252 3307.12,-324"/>
<text xml:space="preserve" text-anchor="middle" x="3009.62" y="-278.7" font-family="Helvetica,sans-Serif" font-weight="bold" font-size="24.00" fill="#000000">Euron Platform Responsive Web Design (2 weeks)</text>
</g>
<!-- Responsive Design Principles&#45;&gt;Euron Platform Responsive Web Design (2 weeks) -->
<g id="edge10" class="edge">
<title>Responsive Design Principles&#45;&gt;Euron Platform Responsive Web Design (2 weeks)</title>
<path fill="none" stroke="#999999" stroke-width="2" d="M2847.3,-503.71C2880.16,-460.25 2936.13,-386.22 2973,-337.45"/>
<polygon fill="#999999" stroke="#999999" stroke-width="2" points="2976.72,-340.65 2981.26,-326.52 2968.91,-334.74 2976.72,-340.65"/>
</g>
<!-- Specialization -->
<g id="node12" class="node">
<title>Specialization</title>
<polygon fill="#fff8dc" stroke="#ffb300" stroke-width="3" points="5011.62,-828 4833.62,-828 4833.62,-756 5011.62,-756 5011.62,-828"/>
<text xml:space="preserve" text-anchor="middle" x="4922.62" y="-782.7" font-family="Helvetica,sans-Serif" font-weight="bold" font-size="24.00" fill="#000000">Specialization</text>
</g>
<!-- Front&#45;End Development -->
<g id="node13" class="node">
<title>Front&#45;End Development</title>
<polygon fill="#fff8dc" stroke="#ffb300" stroke-width="3" points="4510.25,-576 4219,-576 4219,-504 4510.25,-504 4510.25,-576"/>
<text xml:space="preserve" text-anchor="middle" x="4364.62" y="-530.7" font-family="Helvetica,sans-Serif" font-weight="bold" font-size="24.00" fill="#000000">Front&#45;End Development</text>
</g>
<!-- Specialization&#45;&gt;Front&#45;End Development -->
<g id="edge11" class="edge">
<title>Specialization&#45;&gt;Front&#45;End Development</title>
<path fill="none" stroke="#999999" stroke-width="2" d="M4833.24,-762.93C4719.51,-719.42 4530.34,-635.37 4429.38,-584.12"/>
<polygon fill="#999999" stroke="#999999" stroke-width="2" points="4431.64,-579.77 4416.95,-577.73 4427.15,-588.49 4431.64,-579.77"/>
</g>
<!-- Specialization&#45;&gt;Front&#45;End Development -->
<g id="edge14" class="edge">
<title>Specialization&#45;&gt;Front&#45;End Development</title>
<path fill="none" stroke="#999999" stroke-width="2" d="M4872.84,-755.58C4785.5,-710.03 4609.8,-631.04 4488.69,-582.65"/>
<polygon fill="#999999" stroke="#999999" stroke-width="2" points="4490.73,-578.19 4475.91,-577.59 4487.12,-587.3 4490.73,-578.19"/>
</g>
<!-- Back&#45;End Development -->
<g id="node18" class="node">
<title>Back&#45;End Development</title>
<polygon fill="#fff8dc" stroke="#ffb300" stroke-width="3" points="5066,-576 4779.25,-576 4779.25,-504 5066,-504 5066,-576"/>
<text xml:space="preserve" text-anchor="middle" x="4922.62" y="-530.7" font-family="Helvetica,sans-Serif" font-weight="bold" font-size="24.00" fill="#000000">Back&#45;End Development</text>
</g>
<!-- Specialization&#45;&gt;Back&#45;End Development -->
<g id="edge17" class="edge">
<title>Specialization&#45;&gt;Back&#45;End Development</title>
<path fill="none" stroke="#999999" stroke-width="2" d="M4893.39,-755.71C4879.94,-713.09 4878.53,-641.06 4889.18,-592.3"/>
<polygon fill="#999999" stroke="#999999" stroke-width="2" points="4893.84,-593.82 4892.67,-579.04 4884.37,-591.33 4893.84,-593.82"/>
</g>
<!-- Specialization&#45;&gt;Back&#45;End Development -->
<g id="edge20" class="edge">
<title>Specialization&#45;&gt;Back&#45;End Development</title>
<path fill="none" stroke="#999999" stroke-width="2" d="M4951.86,-755.71C4965.31,-713.09 4966.72,-641.06 4956.07,-592.3"/>
<polygon fill="#999999" stroke="#999999" stroke-width="2" points="4960.88,-591.33 4952.58,-579.04 4951.41,-593.82 4960.88,-591.33"/>
</g>
<!-- Full&#45;Stack Development -->
<g id="node23" class="node">
<title>Full&#45;Stack Development</title>
<polygon fill="#fff8dc" stroke="#ffb300" stroke-width="3" points="5757.25,-576 5466,-576 5466,-504 5757.25,-504 5757.25,-576"/>
<text xml:space="preserve" text-anchor="middle" x="5611.62" y="-530.7" font-family="Helvetica,sans-Serif" font-weight="bold" font-size="24.00" fill="#000000">Full&#45;Stack Development</text>
</g>
<!-- Specialization&#45;&gt;Full&#45;Stack Development -->
<g id="edge23" class="edge">
<title>Specialization&#45;&gt;Full&#45;Stack Development</title>
<path fill="none" stroke="#999999" stroke-width="2" d="M5011.99,-758.57C5136.42,-713.43 5361.86,-631.62 5498.06,-582.21"/>
<polygon fill="#999999" stroke="#999999" stroke-width="2" points="5499.47,-586.91 5510.96,-577.53 5496.12,-577.7 5499.47,-586.91"/>
</g>
<!-- Advanced JavaScript &amp; Frameworks -->
<g id="node14" class="node">
<title>Advanced JavaScript &amp; Frameworks</title>
<polygon fill="#fff8dc" stroke="#ffb300" stroke-width="3" points="3848.5,-324 3414.75,-324 3414.75,-252 3848.5,-252 3848.5,-324"/>
<text xml:space="preserve" text-anchor="middle" x="3631.62" y="-278.7" font-family="Helvetica,sans-Serif" font-weight="bold" font-size="24.00" fill="#000000">Advanced JavaScript &amp; Frameworks</text>
</g>
<!-- Front&#45;End Development&#45;&gt;Advanced JavaScript &amp; Frameworks -->
<g id="edge12" class="edge">
<title>Front&#45;End Development&#45;&gt;Advanced JavaScript &amp; Frameworks</title>
<path fill="none" stroke="#999999" stroke-width="2" d="M4260.77,-503.58C4126.53,-457.79 3893.25,-378.23 3751.59,-329.92"/>
<polygon fill="#999999" stroke="#999999" stroke-width="2" points="3753.33,-325.33 3738.49,-325.45 3750.16,-334.61 3753.33,-325.33"/>
</g>
<!-- UI/UX Best Practices -->
<g id="node16" class="node">
<title>UI/UX Best Practices</title>
<polygon fill="#fff8dc" stroke="#ffb300" stroke-width="3" points="4410.12,-324 4157.12,-324 4157.12,-252 4410.12,-252 4410.12,-324"/>
<text xml:space="preserve" text-anchor="middle" x="4283.62" y="-278.7" font-family="Helvetica,sans-Serif" font-weight="bold" font-size="24.00" fill="#000000">UI/UX Best Practices</text>
</g>
<!-- Front&#45;End Development&#45;&gt;UI/UX Best Practices -->
<g id="edge15" class="edge">
<title>Front&#45;End Development&#45;&gt;UI/UX Best Practices</title>
<path fill="none" stroke="#999999" stroke-width="2" d="M4353.19,-503.71C4339.38,-461.09 4316.04,-389.06 4300.25,-340.3"/>
<polygon fill="#999999" stroke="#999999" stroke-width="2" points="4304.91,-338.8 4295.93,-326.99 4295.59,-341.82 4304.91,-338.8"/>
</g>
<!-- Euron Platform React.js Course (4 weeks) -->
<g id="node15" class="node">
<title>Euron Platform React.js Course (4 weeks)</title>
<polygon fill="#fff8dc" stroke="#ffb300" stroke-width="3" points="3758.62,-72 3262.62,-72 3262.62,0 3758.62,0 3758.62,-72"/>
<text xml:space="preserve" text-anchor="middle" x="3510.62" y="-26.7" font-family="Helvetica,sans-Serif" font-weight="bold" font-size="24.00" fill="#000000">Euron Platform React.js Course (4 weeks)</text>
</g>
<!-- Advanced JavaScript &amp; Frameworks&#45;&gt;Euron Platform React.js Course (4 weeks) -->
<g id="edge13" class="edge">
<title>Advanced JavaScript &amp; Frameworks&#45;&gt;Euron Platform React.js Course (4 weeks)</title>
<path fill="none" stroke="#999999" stroke-width="2" d="M3614.55,-251.71C3593.78,-208.81 3558.6,-136.11 3534.99,-87.34"/>
<polygon fill="#999999" stroke="#999999" stroke-width="2" points="3539.45,-85.3 3528.94,-74.83 3530.63,-89.57 3539.45,-85.3"/>
</g>
<!-- Euron Platform Web Design &amp; User Experience (2 weeks) -->
<g id="node17" class="node">
<title>Euron Platform Web Design &amp; User Experience (2 weeks)</title>
<polygon fill="#fff8dc" stroke="#ffb300" stroke-width="3" points="4538.38,-72 3866.88,-72 3866.88,0 4538.38,0 4538.38,-72"/>
<text xml:space="preserve" text-anchor="middle" x="4202.62" y="-26.7" font-family="Helvetica,sans-Serif" font-weight="bold" font-size="24.00" fill="#000000">Euron Platform Web Design &amp; User Experience (2 weeks)</text>
</g>
<!-- UI/UX Best Practices&#45;&gt;Euron Platform Web Design &amp; User Experience (2 weeks) -->
<g id="edge16" class="edge">
<title>UI/UX Best Practices&#45;&gt;Euron Platform Web Design &amp; User Experience (2 weeks)</title>
<path fill="none" stroke="#999999" stroke-width="2" d="M4272.19,-251.71C4258.38,-209.09 4235.04,-137.06 4219.25,-88.3"/>
<polygon fill="#999999" stroke="#999999" stroke-width="2" points="4223.91,-86.8 4214.93,-74.99 4214.59,-89.82 4223.91,-86.8"/>
</g>
<!-- Server&#45;Side Programming -->
<g id="node19" class="node">
<title>Server&#45;Side Programming</title>
<polygon fill="#fff8dc" stroke="#ffb300" stroke-width="3" points="5078.75,-324 4766.5,-324 4766.5,-252 5078.75,-252 5078.75,-324"/>
<text xml:space="preserve" text-anchor="middle" x="4922.62" y="-278.7" font-family="Helvetica,sans-Serif" font-weight="bold" font-size="24.00" fill="#000000">Server&#45;Side Programming</text>
</g>
<!-- Back&#45;End Development&#45;&gt;Server&#45;Side Programming -->
<g id="edge18" class="edge">
<title>Back&#45;End Development&#45;&gt;Server&#45;Side Programming</title>
<path fill="none" stroke="#999999" stroke-width="2" d="M4922.62,-503.71C4922.62,-461.28 4922.62,-389.69 4922.62,-340.94"/>
<polygon fill="#999999" stroke="#999999" stroke-width="2" points="4927.53,-341.14 4922.63,-327.14 4917.73,-341.14 4927.53,-341.14"/>
</g>
<!-- Database Integration -->
<g id="node21" class="node">
<title>Database Integration</title>
<polygon fill="#fff8dc" stroke="#ffb300" stroke-width="3" points="5590,-324 5333.25,-324 5333.25,-252 5590,-252 5590,-324"/>
<text xml:space="preserve" text-anchor="middle" x="5461.62" y="-278.7" font-family="Helvetica,sans-Serif" font-weight="bold" font-size="24.00" fill="#000000">Database Integration</text>
</g>
<!-- Back&#45;End Development&#45;&gt;Database Integration -->
<g id="edge21" class="edge">
<title>Back&#45;End Development&#45;&gt;Database Integration</title>
<path fill="none" stroke="#999999" stroke-width="2" d="M4998.99,-503.58C5096.6,-458.31 5265.43,-380 5369.9,-331.54"/>
<polygon fill="#999999" stroke="#999999" stroke-width="2" points="5371.76,-336.08 5382.4,-325.75 5367.64,-327.19 5371.76,-336.08"/>
</g>
<!-- Euron Platform Node.js &amp; Express.js (3 weeks) -->
<g id="node20" class="node">
<title>Euron Platform Node.js &amp; Express.js (3 weeks)</title>
<polygon fill="#fff8dc" stroke="#ffb300" stroke-width="3" points="5198.75,-72 4646.5,-72 4646.5,0 5198.75,0 5198.75,-72"/>
<text xml:space="preserve" text-anchor="middle" x="4922.62" y="-26.7" font-family="Helvetica,sans-Serif" font-weight="bold" font-size="24.00" fill="#000000">Euron Platform Node.js &amp; Express.js (3 weeks)</text>
</g>
<!-- Server&#45;Side Programming&#45;&gt;Euron Platform Node.js &amp; Express.js (3 weeks) -->
<g id="edge19" class="edge">
<title>Server&#45;Side Programming&#45;&gt;Euron Platform Node.js &amp; Express.js (3 weeks)</title>
<path fill="none" stroke="#999999" stroke-width="2" d="M4922.62,-251.71C4922.62,-209.28 4922.62,-137.69 4922.62,-88.94"/>
<polygon fill="#999999" stroke="#999999" stroke-width="2" points="4927.53,-89.14 4922.63,-75.14 4917.73,-89.14 4927.53,-89.14"/>
</g>
<!-- Euron Platform SQL &amp; NoSQL Databases (2 weeks) -->
<g id="node22" class="node">
<title>Euron Platform SQL &amp; NoSQL Databases (2 weeks)</title>
<polygon fill="#fff8dc" stroke="#ffb300" stroke-width="3" points="5908.5,-72 5306.75,-72 5306.75,0 5908.5,0 5908.5,-72"/>
<text xml:space="preserve" text-anchor="middle" x="5607.62" y="-26.7" font-family="Helvetica,sans-Serif" font-weight="bold" font-size="24.00" fill="#000000">Euron Platform SQL &amp; NoSQL Databases (2 weeks)</text>
</g>
<!-- Database Integration&#45;&gt;Euron Platform SQL &amp; NoSQL Databases (2 weeks) -->
<g id="edge22" class="edge">
<title>Database Integration&#45;&gt;Euron Platform SQL &amp; NoSQL Databases (2 weeks)</title>
<path fill="none" stroke="#999999" stroke-width="2" d="M5482.23,-251.71C5507.4,-208.62 5550.11,-135.48 5578.59,-86.71"/>
<polygon fill="#999999" stroke="#999999" stroke-width="2" points="5582.77,-89.28 5585.59,-74.72 5574.3,-84.34 5582.77,-89.28"/>
</g>
<!-- Combining Front&#45;End &amp; Back&#45;End -->
<g id="node24" class="node">
<title>Combining Front&#45;End &amp; Back&#45;End</title>
<polygon fill="#fff8dc" stroke="#ffb300" stroke-width="3" points="6325.75,-324 5917.5,-324 5917.5,-252 6325.75,-252 6325.75,-324"/>
<text xml:space="preserve" text-anchor="middle" x="6121.62" y="-278.7" font-family="Helvetica,sans-Serif" font-weight="bold" font-size="24.00" fill="#000000">Combining Front&#45;End &amp; Back&#45;End</text>
</g>
<!-- Full&#45;Stack Development&#45;&gt;Combining Front&#45;End &amp; Back&#45;End -->
<g id="edge24" class="edge">
<title>Full&#45;Stack Development&#45;&gt;Combining Front&#45;End &amp; Back&#45;End</title>
<path fill="none" stroke="#999999" stroke-width="2" d="M5683.88,-503.58C5776.05,-458.4 5935.33,-380.32 6034.23,-331.84"/>
<polygon fill="#999999" stroke="#999999" stroke-width="2" points="6036.13,-336.37 6046.54,-325.8 6031.82,-327.57 6036.13,-336.37"/>
</g>
<!-- Euron Platform Full&#45;Stack Web Development (4 weeks) -->
<g id="node25" class="node">
<title>Euron Platform Full&#45;Stack Web Development (4 weeks)</title>
<polygon fill="#fff8dc" stroke="#ffb300" stroke-width="3" points="6662.62,-72 6016.62,-72 6016.62,0 6662.62,0 6662.62,-72"/>
<text xml:space="preserve" text-anchor="middle" x="6339.62" y="-26.7" font-family="Helvetica,sans-Serif" font-weight="bold" font-size="24.00" fill="#000000">Euron Platform Full&#45;Stack Web Development (4 weeks)</text>
</g>
<!-- Combining Front&#45;End &amp; Back&#45;End&#45;&gt;Euron Platform Full&#45;Stack Web Development (4 weeks) -->
<g id="edge25" class="edge">
<title>Combining Front&#45;End &amp; Back&#45;End&#45;&gt;Euron Platform Full&#45;Stack Web Development (4 weeks)</title>
<path fill="none" stroke="#999999" stroke-width="2" d="M6152.4,-251.71C6190.46,-208.07 6255.41,-133.58 6297.92,-84.83"/>
<polygon fill="#999999" stroke="#999999" stroke-width="2" points="6301.51,-88.16 6307.02,-74.39 6294.13,-81.72 6301.51,-88.16"/>
</g>
<!-- Additional Skills -->
<g id="node26" class="node">
<title>Additional Skills</title>
<polygon fill="#fff8dc" stroke="#ffb300" stroke-width="3" points="7977.12,-828 7772.12,-828 7772.12,-756 7977.12,-756 7977.12,-828"/>
<text xml:space="preserve" text-anchor="middle" x="7874.62" y="-782.7" font-family="Helvetica,sans-Serif" font-weight="bold" font-size="24.00" fill="#000000">Additional Skills</text>
</g>
<!-- Web Security Fundamentals -->
<g id="node27" class="node">
<title>Web Security Fundamentals</title>
<polygon fill="#fff8dc" stroke="#ffb300" stroke-width="3" points="7129,-576 6788.25,-576 6788.25,-504 7129,-504 7129,-576"/>
<text xml:space="preserve" text-anchor="middle" x="6958.62" y="-530.7" font-family="Helvetica,sans-Serif" font-weight="bold" font-size="24.00" fill="#000000">Web Security Fundamentals</text>
</g>
<!-- Additional Skills&#45;&gt;Web Security Fundamentals -->
<g id="edge26" class="edge">
<title>Additional Skills&#45;&gt;Web Security Fundamentals</title>
<path fill="none" stroke="#999999" stroke-width="2" d="M7771.77,-762.93C7608.93,-718.49 7291.17,-631.76 7104.74,-580.88"/>
<polygon fill="#999999" stroke="#999999" stroke-width="2" points="7106.22,-576.2 7091.42,-577.24 7103.64,-585.66 7106.22,-576.2"/>
</g>
<!-- Content Management Systems -->
<g id="node29" class="node">
<title>Content Management Systems</title>
<polygon fill="#fff8dc" stroke="#ffb300" stroke-width="3" points="7757.25,-576 7388,-576 7388,-504 7757.25,-504 7757.25,-576"/>
<text xml:space="preserve" text-anchor="middle" x="7572.62" y="-530.7" font-family="Helvetica,sans-Serif" font-weight="bold" font-size="24.00" fill="#000000">Content Management Systems</text>
</g>
<!-- Additional Skills&#45;&gt;Content Management Systems -->
<g id="edge28" class="edge">
<title>Additional Skills&#45;&gt;Content Management Systems</title>
<path fill="none" stroke="#999999" stroke-width="2" d="M7832,-755.71C7778.49,-711.41 7686.6,-635.35 7627.78,-586.66"/>
<polygon fill="#999999" stroke="#999999" stroke-width="2" points="7631.28,-583.19 7617.37,-578.04 7625.03,-590.74 7631.28,-583.19"/>
</g>
<!-- E&#45;commerce Development -->
<g id="node31" class="node">
<title>E&#45;commerce Development</title>
<polygon fill="#fff8dc" stroke="#ffb300" stroke-width="3" points="8336.12,-576 8017.12,-576 8017.12,-504 8336.12,-504 8336.12,-576"/>
<text xml:space="preserve" text-anchor="middle" x="8176.62" y="-530.7" font-family="Helvetica,sans-Serif" font-weight="bold" font-size="24.00" fill="#000000">E&#45;commerce Development</text>
</g>
<!-- Additional Skills&#45;&gt;E&#45;commerce Development -->
<g id="edge30" class="edge">
<title>Additional Skills&#45;&gt;E&#45;commerce Development</title>
<path fill="none" stroke="#999999" stroke-width="2" d="M7917.25,-755.71C7970.76,-711.41 8062.65,-635.35 8121.47,-586.66"/>
<polygon fill="#999999" stroke="#999999" stroke-width="2" points="8124.22,-590.74 8131.88,-578.04 8117.97,-583.19 8124.22,-590.74"/>
</g>
<!-- Web Deployment &amp; Hosting -->
<g id="node33" class="node">
<title>Web Deployment &amp; Hosting</title>
<polygon fill="#fff8dc" stroke="#ffb300" stroke-width="3" points="8999.62,-576 8665.62,-576 8665.62,-504 8999.62,-504 8999.62,-576"/>
<text xml:space="preserve" text-anchor="middle" x="8832.62" y="-530.7" font-family="Helvetica,sans-Serif" font-weight="bold" font-size="24.00" fill="#000000">Web Deployment &amp; Hosting</text>
</g>
<!-- Additional Skills&#45;&gt;Web Deployment &amp; Hosting -->
<g id="edge32" class="edge">
<title>Additional Skills&#45;&gt;Web Deployment &amp; Hosting</title>
<path fill="none" stroke="#999999" stroke-width="2" d="M7977.6,-764.13C8146.7,-720 8484.02,-631.97 8680.65,-580.66"/>
<polygon fill="#999999" stroke="#999999" stroke-width="2" points="8681.65,-585.46 8693.96,-577.19 8679.18,-575.98 8681.65,-585.46"/>
</g>
<!-- Euron Platform Web Security Essentials (2 weeks) -->
<g id="node28" class="node">
<title>Euron Platform Web Security Essentials (2 weeks)</title>
<polygon fill="#fff8dc" stroke="#ffb300" stroke-width="3" points="7027,-324 6434.25,-324 6434.25,-252 7027,-252 7027,-324"/>
<text xml:space="preserve" text-anchor="middle" x="6730.62" y="-278.7" font-family="Helvetica,sans-Serif" font-weight="bold" font-size="24.00" fill="#000000">Euron Platform Web Security Essentials (2 weeks)</text>
</g>
<!-- Web Security Fundamentals&#45;&gt;Euron Platform Web Security Essentials (2 weeks) -->
<g id="edge27" class="edge">
<title>Web Security Fundamentals&#45;&gt;Euron Platform Web Security Essentials (2 weeks)</title>
<path fill="none" stroke="#999999" stroke-width="2" d="M6926.44,-503.71C6886.55,-459.97 6818.42,-385.26 6773.96,-336.52"/>
<polygon fill="#999999" stroke="#999999" stroke-width="2" points="6777.74,-333.39 6764.68,-326.35 6770.5,-339.99 6777.74,-333.39"/>
</g>
<!-- Euron Platform CMS Platforms (WordPress, Drupal) (2 weeks) -->
<g id="node30" class="node">
<title>Euron Platform CMS Platforms (WordPress, Drupal) (2 weeks)</title>
<polygon fill="#fff8dc" stroke="#ffb300" stroke-width="3" points="7858.62,-324 7134.62,-324 7134.62,-252 7858.62,-252 7858.62,-324"/>
<text xml:space="preserve" text-anchor="middle" x="7496.62" y="-278.7" font-family="Helvetica,sans-Serif" font-weight="bold" font-size="24.00" fill="#000000">Euron Platform CMS Platforms (WordPress, Drupal) (2 weeks)</text>
</g>
<!-- Content Management Systems&#45;&gt;Euron Platform CMS Platforms (WordPress, Drupal) (2 weeks) -->
<g id="edge29" class="edge">
<title>Content Management Systems&#45;&gt;Euron Platform CMS Platforms (WordPress, Drupal) (2 weeks)</title>
<path fill="none" stroke="#999999" stroke-width="2" d="M7561.9,-503.71C7548.94,-461.09 7527.04,-389.06 7512.22,-340.3"/>
<polygon fill="#999999" stroke="#999999" stroke-width="2" points="7516.94,-338.97 7508.18,-327.01 7507.56,-341.83 7516.94,-338.97"/>
</g>
<!-- Euron Platform E&#45;commerce Solutions (2 weeks) -->
<g id="node32" class="node">
<title>Euron Platform E&#45;commerce Solutions (2 weeks)</title>
<polygon fill="#fff8dc" stroke="#ffb300" stroke-width="3" points="8541,-324 7966.25,-324 7966.25,-252 8541,-252 8541,-324"/>
<text xml:space="preserve" text-anchor="middle" x="8253.62" y="-278.7" font-family="Helvetica,sans-Serif" font-weight="bold" font-size="24.00" fill="#000000">Euron Platform E&#45;commerce Solutions (2 weeks)</text>
</g>
<!-- E&#45;commerce Development&#45;&gt;Euron Platform E&#45;commerce Solutions (2 weeks) -->
<g id="edge31" class="edge">
<title>E&#45;commerce Development&#45;&gt;Euron Platform E&#45;commerce Solutions (2 weeks)</title>
<path fill="none" stroke="#999999" stroke-width="2" d="M8187.49,-503.71C8200.62,-461.09 8222.81,-389.06 8237.82,-340.3"/>
<polygon fill="#999999" stroke="#999999" stroke-width="2" points="8242.48,-341.82 8241.92,-327 8233.12,-338.94 8242.48,-341.82"/>
</g>
<!-- Euron Platform Deployment &amp; Cloud Services (2 weeks) -->
<g id="node34" class="node">
<title>Euron Platform Deployment &amp; Cloud Services (2 weeks)</title>
<polygon fill="#fff8dc" stroke="#ffb300" stroke-width="3" points="9306.25,-324 8649,-324 8649,-252 9306.25,-252 9306.25,-324"/>
<text xml:space="preserve" text-anchor="middle" x="8977.62" y="-278.7" font-family="Helvetica,sans-Serif" font-weight="bold" font-size="24.00" fill="#000000">Euron Platform Deployment &amp; Cloud Services (2 weeks)</text>
</g>
<!-- Web Deployment &amp; Hosting&#45;&gt;Euron Platform Deployment &amp; Cloud Services (2 weeks) -->
<g id="edge33" class="edge">
<title>Web Deployment &amp; Hosting&#45;&gt;Euron Platform Deployment &amp; Cloud Services (2 weeks)</title>
<path fill="none" stroke="#999999" stroke-width="2" d="M8853.09,-503.71C8878.08,-460.62 8920.51,-387.48 8948.79,-338.71"/>
<polygon fill="#999999" stroke="#999999" stroke-width="2" points="8952.96,-341.3 8955.74,-326.73 8944.48,-336.38 8952.96,-341.3"/>
</g>
</g>
</svg>
